<?xml version="1.0" encoding="utf-8"?>
<!-- Generator: Adobe Illustrator 21.0.2, SVG Export Plug-In . SVG Version: 6.00 Build 0)  -->
<svg version="1.1" id="Layer_1" xmlns="http://www.w3.org/2000/svg" xmlns:xlink="http://www.w3.org/1999/xlink" x="0px" y="0px"
	 viewBox="0 0 23 34" style="enable-background:new 0 0 23 34;" xml:space="preserve">
<path style="fill-rule:evenodd;clip-rule:evenodd;fill:#333743;" d="M0.2,22.9c0,2.9,1.1,5.6,3.2,7.7c2.1,2.1,4.8,3.2,7.8,3.2
	c2.9,0,5.7-1.1,7.8-3.2c2.1-2.1,3.2-4.8,3.2-7.8c0,0,0,0,0,0c0,0,0,0,0,0c0,0,0,0,0,0c0,0,0,0,0,0c0-2.9-1.1-5.7-3.2-7.8
	c-2.1-2.1-4.8-3.2-7.8-3.2c-0.7,0-1.2,0.5-1.2,1.2s0.5,1.2,1.2,1.2c2.3,0,4.4,0.9,6,2.5c1.6,1.6,2.5,3.8,2.5,6c0,0,0,0,0,0
	c0,0,0,0,0,0c0,0,0,0.1,0,0.1c0,2.3-0.9,4.4-2.5,6c-1.6,1.6-3.8,2.5-6,2.5c-2.3,0-4.4-0.9-6-2.5c-1.6-1.6-2.5-3.7-2.5-6
	c0,0,0-11.1,0-11.9C2.6,9.6,3,8.2,3.7,7c0,0,0,0,0-0.1c0,0,0,0,0,0c0,0,0,0,0,0c0,0,0,0,0,0c1.1-2,2.9-3.4,5.1-4
	c2.2-0.6,4.5-0.3,6.5,0.9c2,1.1,3.4,3,4,5.2c0.5,2,0.3,4.1-0.6,5.9c0.6,0.7,1.2,1.5,1.6,2c0.1-0.1,0.1-0.2,0.2-0.2
	c1.5-2.5,1.9-5.5,1.1-8.3c-0.8-2.8-2.6-5.2-5.1-6.7C14,0.2,11.1-0.2,8.3,0.5C5.5,1.3,3.1,3.1,1.7,5.6c0,0,0,0,0,0.1c0,0,0,0,0,0.1
	C0.9,7,0.4,8.3,0.3,9.7C0.3,11.1,0.2,22.9,0.2,22.9"/>
</svg>
